<svg xmlns="http://www.w3.org/2000/svg" xmlns:xlink="http://www.w3.org/1999/xlink" viewBox="0,0,256,256" width="40px" height="40px" fill-rule="nonzero"><g fill="none" fill-rule="nonzero" stroke="none" stroke-width="1" stroke-linecap="butt" stroke-linejoin="miter" stroke-miterlimit="10" stroke-dasharray="" stroke-dashoffset="0" font-family="none" font-weight="none" font-size="none" text-anchor="none" style="mix-blend-mode: normal"><g transform="scale(6.4,6.4)"><path d="M4.433,22.306l-0.176,-0.205c-1.804,-2.1 -2.757,-4.555 -2.757,-7.101c0,-6.893 6.953,-12.5 15.5,-12.5c8.547,0 15.5,5.607 15.5,12.5c0,6.893 -6.953,12.5 -15.5,12.5c-2.527,0 -5.044,-0.508 -7.275,-1.468l-0.175,-0.075l-6.809,2.269z" fill="#f8e8ee"></path><path d="M17,3c8.271,0 15,5.383 15,12c0,6.617 -6.729,12 -15,12c-2.46,0 -4.907,-0.494 -7.078,-1.428l-0.35,-0.151l-0.361,0.12l-5.728,1.909l1.357,-4.75l0.148,-0.518l-0.351,-0.409c-1.725,-2.006 -2.637,-4.349 -2.637,-6.773c0,-6.617 6.729,-12 15,-12M17,2c-8.837,0 -16,5.82 -16,13c0,2.763 1.069,5.32 2.878,7.427l-1.878,6.573l7.527,-2.509c2.231,0.96 4.772,1.509 7.473,1.509c8.837,0 16,-5.82 16,-13c0,-7.18 -7.163,-13 -16,-13z" fill-opacity="0" fill="#7496c4"></path><path d="M32.484,35.343l-0.208,0.089c-1.653,0.709 -3.428,1.068 -5.276,1.068c-6.341,0 -11.5,-4.262 -11.5,-9.5c0,-5.238 5.159,-9.5 11.5,-9.5c6.341,0 11.5,4.262 11.5,9.5c0,1.673 -0.546,3.327 -1.58,4.784l-0.131,0.186l1.479,6.128z" fill-opacity="0" fill="#f2faff"></path><path d="M27,18c6.065,0 11,4.037 11,9c0,1.568 -0.514,3.122 -1.488,4.495l-0.263,0.371l0.107,0.442l1.18,4.887l-4.632,-2.206l-0.408,-0.194l-0.416,0.178c-1.592,0.681 -3.301,1.027 -5.08,1.027c-6.065,0 -11,-4.037 -11,-9c0,-4.963 4.935,-9 11,-9M27,17c-6.627,0 -12,4.477 -12,10c0,5.523 5.373,10 12,10c1.974,0 3.831,-0.404 5.473,-1.108l6.527,3.108l-1.672,-6.927c1.056,-1.488 1.672,-3.219 1.672,-5.073c0,-5.523 -5.373,-10 -12,-10z" fill="#fdcedf"></path><path d="M22.5,24c-0.82843,0 -1.5,0.67157 -1.5,1.5c0,0.82843 0.67157,1.5 1.5,1.5c0.82843,0 1.5,-0.67157 1.5,-1.5c0,-0.82843 -0.67157,-1.5 -1.5,-1.5zM31.5,24c-0.82843,0 -1.5,0.67157 -1.5,1.5c0,0.82843 0.67157,1.5 1.5,1.5c0.82843,0 1.5,-0.67157 1.5,-1.5c0,-0.82843 -0.67157,-1.5 -1.5,-1.5zM12,9c-1.10457,0 -2,0.89543 -2,2c0,1.10457 0.89543,2 2,2c1.10457,0 2,-0.89543 2,-2c0,-1.10457 -0.89543,-2 -2,-2zM22,9c-1.10457,0 -2,0.89543 -2,2c0,1.10457 0.89543,2 2,2c1.10457,0 2,-0.89543 2,-2c0,-1.10457 -0.89543,-2 -2,-2z" fill="#f2bed1"></path></g></g></svg>