<svg width="20" height="20" viewBox="0 0 20 20" fill="none" xmlns="http://www.w3.org/2000/svg">
<path d="M13.6 18.2511C12.4976 18.7328 11.28 19 10 19C5.02944 19 1 14.9706 1 10C1 5.02944 5.02944 1 10 1C14.9706 1 19 5.02944 19 10C19 11.28 18.7328 12.4976 18.2511 13.6" stroke="#F2BED1" stroke-width="2" stroke-linecap="round"/>
<rect x="5" y="8" width="2" height="4" rx="0.5" fill="#F2BED1"/>
<path d="M8 8.26759C8 8.10042 8.08355 7.9443 8.22265 7.85157L10.2227 6.51823C10.5549 6.29671 11 6.53491 11 6.93426V13.0657C11 13.4651 10.5549 13.7033 10.2227 13.4818L8.22265 12.1484C8.08355 12.0557 8 11.8996 8 11.7324V8.26759Z" fill="#F2BED1"/>
<path d="M13 13.1405C14.0594 12.5277 14.7722 11.3822 14.7722 10.0703C14.7722 8.75831 14.0594 7.61285 13 7" stroke="#F2BED1" stroke-linecap="round"/>
<path d="M12.3291 12C12.995 11.6148 13.443 10.8949 13.443 10.0703C13.443 9.24566 12.995 8.52571 12.3291 8.14051" stroke="#F2BED1" stroke-linecap="round"/>
</svg>
